<?xml version="1.0" encoding="UTF-8"?>
<svg width="16px" height="16px" viewBox="0 0 16 16" version="1.1" xmlns="http://www.w3.org/2000/svg" xmlns:xlink="http://www.w3.org/1999/xlink">
    <title>Group 12</title>
    <defs>
        <polygon id="path-1" points="0 0.2185 15.9996 0.2185 15.9996 10.9995 0 10.9995"></polygon>
    </defs>
    <g id="Page-1" stroke="none" stroke-width="1" fill="none" fill-rule="evenodd">
        <g id="Desktop/Net-worth" transform="translate(-526.000000, -789.000000)">
            <g id="Group-12" transform="translate(526.000000, 789.000000)">
                <g id="Group-3" transform="translate(0.000000, 5.000000)">
                    <mask id="mask-2" fill="white">
                        <use xlink:href="#path-1"></use>
                    </mask>
                    <g id="Clip-2"></g>
                    <path d="M15.8896,5.1875 L11.9136,0.2185 L11.1326,1.0005 L11.2586,1.0005 L14.9986,5.6745 L14.9986,5.9995 L11.4996,5.9995 L9.4996,8.0005 L6.4996,8.0005 L4.4996,5.9995 L0.9996,5.9995 L0.9996,5.6745 L4.7406,1.0005 L4.8676,1.0005 L4.0856,0.2185 L0.1096,5.1875 C0.0386,5.2775 -0.0004,5.3865 -0.0004,5.4995 L-0.0004,9.9995 C-0.0004,10.5515 0.4486,10.9995 0.9996,10.9995 L14.9996,10.9995 C15.5516,10.9995 15.9996,10.5515 15.9996,9.9995 L15.9996,5.4995 C15.9996,5.3855 15.9606,5.2765 15.8896,5.1875" id="Fill-1" fill="#000000" mask="url(#mask-2)"></path>
                </g>
                <path d="M4,7.5 C4,7.776 4.224,8 4.5,8 L6.867,8 L5.867,7 L4.5,7 C4.224,7 4,7.224 4,7.5" id="Fill-4" fill="#000000"></path>
                <path d="M12,7.5 C12,7.224 11.776,7 11.5,7 L10.133,7 L9.133,8 L11.5,8 C11.776,8 12,7.776 12,7.5" id="Fill-6" fill="#000000"></path>
                <path d="M3,9.5 C3,9.776 3.224,10 3.5,10 L12.5,10 C12.776,10 13,9.776 13,9.5 C13,9.224 12.776,9 12.5,9 L3.5,9 C3.224,9 3,9.224 3,9.5" id="Fill-8" fill="#000000"></path>
                <polygon id="Fill-10" fill="#000000" points="8 7.7183 12 3.7183 9 3.7183 9 0.0003 7 0.0003 7 3.7183 4 3.7183"></polygon>
            </g>
        </g>
    </g>
</svg>